<svg version="1.1" xmlns="http://www.w3.org/2000/svg" xmlns:xlink="http://www.w3.org/1999/xlink" width="117.67764" height="117.67764" viewBox="0,0,117.67764,117.67764"><g transform="translate(-181.16118,-121.16118)"><g data-paper-data="{&quot;isPaintingLayer&quot;:true}" fill-rule="nonzero" stroke-linecap="butt" stroke-linejoin="miter" stroke-miterlimit="10" stroke-dasharray="" stroke-dashoffset="0" style="mix-blend-mode: normal"><path d="M184.91118,180c0,-30.42471 24.6641,-55.08882 55.08882,-55.08882c30.42471,0 55.08882,24.6641 55.08882,55.08882c0,30.42471 -24.6641,55.08882 -55.08882,55.08882c-30.42471,0 -55.08882,-24.6641 -55.08882,-55.08882z" fill="#ffcc00" stroke="#ffa700" stroke-width="7.5"/><path d="M258.32544,203.538c-3.34347,1.38283 -6.57663,2.42065 -9.40118,2.90591c-2.38607,0.40952 -7.175,0.91534 -9.64896,0.91534c-2.96107,0 -9.29179,-0.35249 -13.08967,-1.62406c-5.08626,-1.70446 -11.4815,-6.15868 -14.58468,-11.17015c-6.61588,-10.67555 3.8549,-23.38001 3.25091,-22.64511l-2.08779,-17.68039l12.04062,7.96974c0,0 4.20552,-1.69323 8.62702,-1.90361c1.6521,-0.07948 4.62439,0.07853 6.06332,0.21225l2.66842,-1.03315l6.94687,-6.84401l2.66842,10.79896c0,0 6.07267,4.42713 7.80799,7.51909c2.62168,4.67114 2.4571,9.6742 2.4571,9.6742c0,0 6.93659,1.05838 8.31287,7.08618c1.37441,6.02779 -3.15181,12.14067 -12.03127,15.81885z" fill="#ffa700" stroke="#ffa700" stroke-width="7.5"/><text transform="translate(228.9169,191.96975) scale(2.21662,2.21662)" font-size="18" xml:space="preserve" fill="#ffcc00" fill-rule="nonzero" stroke="none" stroke-width="1" stroke-linecap="butt" stroke-linejoin="miter" stroke-miterlimit="10" stroke-dasharray="" stroke-dashoffset="0" font-family="Helvetica" font-weight="bold" text-anchor="start" style="mix-blend-mode: normal"><tspan x="0" dy="0">$</tspan></text></g></g></svg>